Coordinates
version=1
nRows=19
nColumns=36
inDegrees=yes

Units are S.I. units (second, meters, Newtons, ...)
If the header above contains a line with 'inDegrees', this indicates whether rotational values are in degrees (yes) or radians (no).

endheader
time	pelvis_tilt	pelvis_list	pelvis_rotation	pelvis_tx	pelvis_ty	pelvis_tz	hip_flexion_r	hip_adduction_r	hip_rotation_r	knee_angle_r	knee_angle_r_beta	ankle_angle_r	subtalar_angle_r	mtp_angle_r	hip_flexion_l	hip_adduction_l	hip_rotation_l	knee_angle_l	knee_angle_l_beta	ankle_angle_l	subtalar_angle_l	mtp_angle_l	lumbar_extension	lumbar_bending	lumbar_rotation	arm_flex_r	arm_add_r	arm_rot_r	elbow_flex_r	pro_sup_r	arm_flex_l	arm_add_l	arm_rot_l	elbow_flex_l	pro_sup_l
      0.00000000	     -0.05764647	      1.15644116	      1.71298684	     -0.22368034	      0.91811909	     -0.21582292	     26.30325346	     -0.88200204	     -3.16551820	      1.55014472	      0.02705513	      6.85253711	     -0.57294564	     -4.75303877	    -22.49349266	      3.45622345	     -0.88885931	      5.83566860	      0.10185163	     12.26541286	     -0.33772292	     -4.75303877	    -10.36263242	     -2.45236226	     -3.52677182	     -5.22709222	     -4.45175587	     -8.90783108	     35.02352173	    110.36155746	      5.99887502	    -10.72548239	      9.80264789	     31.88685965	    105.29177661
      0.01000000	      0.01905457	      0.87727867	      2.01337211	     -0.20836521	      0.91656152	     -0.21557439	     26.14986017	     -0.58003734	     -3.71011683	      2.54564991	      0.04442997	      5.43908654	     -1.51407176	     -4.78400314	    -22.70584006	      2.88800418	     -1.12812870	      7.31860286	      0.12773372	     11.64386843	     -0.48694422	     -4.78400314	    -10.07097326	     -1.62836438	     -3.64665490	     -5.58755311	     -4.40450062	     -9.33708202	     34.74002407	    110.38980045	      5.62009002	    -10.45772332	      9.53125506	     31.58580853	    105.35863321
      0.02000000	     -0.14573599	      0.60340879	      2.18381546	     -0.19316912	      0.91467706	     -0.21495730	     26.14244995	     -0.14753427	     -2.75109700	      3.29016741	      0.05742425	      2.24544302	     -5.34411333	     -4.91488461	    -22.57212851	      2.34591854	     -1.50540953	      8.94446599	      0.15611038	     11.35054004	     -0.28124377	     -4.91488461	     -9.47261593	     -0.85374248	     -3.58668106	     -5.92067159	     -4.18588404	    -10.48892480	     34.42722164	    110.62350798	      5.26408841	    -10.09293097	      8.74956930	     31.06849068	    105.72745709
      0.03000000	     -0.12755346	      0.22296438	      2.37806503	     -0.17774227	      0.91331509	     -0.21445621	     26.14434953	      0.28460805	     -3.24393358	      4.54098545	      0.07925515	      0.65138508	     -6.28246550	     -4.95019365	    -22.53466666	      1.68386979	     -1.88889923	     10.70190287	      0.18678344	     10.38800002	     -0.57778426	     -4.95019365	     -9.08653766	      0.07130716	     -3.59981318	     -6.24427523	     -4.24541368	    -10.71103861	     34.16863714	    110.67243480	      4.85804833	     -9.82748054	      8.63906554	     30.72045032	    105.80652111
      0.04000000	     -0.32670041	     -0.15187511	      2.43034861	     -0.16239094	      0.91193485	     -0.21351238	     26.25322724	      0.85912022	     -2.40771756	      5.55679470	      0.09698436	     -2.48366963	     -9.60142944	     -5.08218019	    -22.08581107	      1.08099277	     -2.15320650	     12.74293619	      0.22240619	      9.37943404	     -1.10960468	     -5.08218019	     -8.42081763	      0.93441007	     -3.42902015	     -6.53498291	     -4.18188908	    -11.34332823	     33.74702445	    110.85662176	      4.51579968	     -9.43150722	      8.17073066	     30.05415571	    106.08634974
      0.05000000	     -0.28379829	     -0.67449140	      2.46177048	     -0.14681880	      0.91130594	     -0.21254364	     26.24338382	      1.49272866	     -2.69455083	      7.01133666	      0.12237091	     -3.74353180	    -10.12515410	     -5.11021216	    -21.68602206	      0.28139894	     -2.74624573	     15.08933322	      0.26335855	      7.84743658	     -1.66212202	     -5.11021216	     -8.05366380	      1.97555611	     -3.23488635	     -6.78665156	     -4.29053896	    -11.49355101	     33.44704896	    110.86637280	      4.11904051	     -9.08777706	      8.01348722	     29.66852399	    106.09925356
      0.06000000	     -0.33782570	     -1.23753294	      2.37173616	     -0.13129451	      0.91093628	     -0.21134128	     26.35386811	      2.21959749	     -2.60247521	      8.58429517	      0.14982421	     -4.96931791	    -10.96223421	     -5.13880023	    -20.95150110	     -0.52023756	     -3.32188200	     17.77563636	      0.31024338	      6.00634147	     -2.49584916	     -5.13880023	     -7.56077677	      3.04758045	     -2.92672317	     -6.99451653	     -4.42883913	    -11.69580731	     33.04527888	    110.86091138	      3.72922631	     -8.66415588	      7.70275948	     29.09134943	    106.06795672
      0.07000000	     -0.36846717	     -1.86505347	      2.16611905	     -0.11583856	      0.91101228	     -0.20991438	     26.43458216	      3.07285192	     -2.25774763	     10.25624480	      0.17900524	     -5.92357990	    -11.98043054	     -5.16764071	    -20.00729289	     -1.37982398	     -3.93065076	     20.79358601	      0.36291654	      3.71799575	     -3.58918674	     -5.16764071	     -7.12078364	      4.16944469	     -2.51565330	     -7.12342347	     -4.57848646	    -11.88931024	     32.61661266	    110.85339035	      3.37596018	     -8.16426133	      7.29334395	     28.47364228	    106.01264897
      0.08000000	     -0.47529254	     -2.43029251	      1.85098278	     -0.10061368	      0.91140829	     -0.20836277	     26.54072953	      3.97234934	     -1.26580082	     11.88533731	      0.20743827	     -7.61178546	    -14.51582548	     -5.31814233	    -18.77086457	     -2.04288868	     -4.17845551	     24.00724642	      0.41900549	      0.19521709	     -6.34106365	     -5.31814233	     -6.62590106	      5.19939914	     -2.07906946	     -7.14544707	     -4.76785275	    -12.16765145	     32.06519362	    110.95926341	      2.94997576	     -7.55504800	      6.11251975	     27.85569083	    106.06664432
      0.09000000	     -0.23092687	     -3.21116883	      1.53041024	     -0.08545085	      0.91255176	     -0.20662730	     26.22682752	      5.05490979	     -0.97715468	     13.58348998	      0.23707662	     -7.36912909	    -15.04407022	     -5.34444127	    -17.59501891	     -3.19915164	     -5.19587908	     27.75204480	      0.48436456	     -2.60285502	     -7.06878556	     -5.34444127	     -6.60395953	      6.45063103	     -1.51690993	     -7.14633730	     -5.02751882	    -12.22980921	     31.70131096	    110.95685675	      2.63862094	     -7.05266175	      5.72785064	     27.37869594	    106.01086530
      0.10000000	     -0.21726415	     -3.82855016	      1.15039483	     -0.07070417	      0.91366002	     -0.20492506	     26.17409583	      5.99261415	     -0.46019248	     15.35798455	      0.26804740	     -7.17922177	    -15.93367094	     -5.43580040	    -15.96368343	     -4.02234073	     -5.58861499	     31.61347825	      0.55175928	     -6.85192995	     -9.95035358	     -5.43580040	     -6.32618959	      7.48180366	     -1.02088499	     -7.04253378	     -5.28722666	    -12.29775843	     31.21446404	    111.00515249	      2.30795153	     -6.38747774	      4.43294367	     26.76319536	    105.92071378
      0.11000000	      0.20147127	     -4.62747992	      0.77013209	     -0.05610891	      0.91555064	     -0.20295057	     25.39055479	      7.15752282	     -0.10895698	     16.60940901	      0.28988887	     -6.46081192	    -16.39100324	     -5.45703152	    -14.62463481	     -5.28661021	     -6.45927447	     35.66825731	      0.62252853	     -9.80559068	    -10.47120240	     -5.45703152	     -6.62073556	      8.66859256	     -0.41953348	     -6.89389802	     -5.57178514	    -12.31423009	     30.92714577	    111.00971544	      2.05056345	     -5.90873218	      4.01363368	     26.44391176	    105.86819797
      0.12000000	      0.35503445	     -5.46249807	      0.40854873	     -0.04186961	      0.91720675	     -0.20091640	     24.77944455	      8.36351335	      0.29894084	     17.65358567	      0.30811319	     -5.66672153	    -16.83228255	     -5.48389819	    -12.83091622	     -6.58426551	     -7.04189523	     39.77206670	      0.69415351	    -13.19491770	    -11.89172546	     -5.48389819	     -6.58037998	      9.83114507	      0.15859922	     -6.73797750	     -5.86609472	    -12.33078348	     30.64832072	    111.02812562	      1.77409371	     -5.35101675	      3.23850973	     25.94568219	    105.76031617
      0.13000000	      0.59621912	     -5.87649604	      0.08730327	     -0.02824863	      0.91925651	     -0.19912749	     23.97961579	      9.06664464	      0.61614663	     18.50616454	      0.32299350	     -4.96049332	    -17.02514657	     -5.57219663	    -11.08798141	     -7.20240509	     -7.04571596	     43.48959659	      0.75903665	    -17.47268967	    -15.40805095	     -5.57219663	     -6.74200393	     10.44135542	      0.48021836	     -6.36626147	     -6.06993885	    -12.17859114	     30.33165633	    111.14504761	      1.45371140	     -4.75276629	      1.19236740	     25.75629968	    105.65705267
      0.14000000	      1.10544555	     -6.40174843	     -0.19391414	     -0.01485415	      0.92183325	     -0.19710259	     22.62386985	      9.91430614	      0.99144325	     18.85681193	      0.32911345	     -4.17176641	    -17.17229364	     -5.58793772	     -9.64019021	     -8.08965348	     -7.16121857	     47.06621292	      0.82146038	    -18.90542274	    -15.82498005	     -5.58793772	     -7.26232958	     11.11953153	      1.02918568	     -6.05242184	     -6.27092212	    -12.12879506	     30.18810771	    111.16472779	      1.33200324	     -4.41692378	      0.79849270	     25.59025011	    105.62904434
      0.15000000	      1.26643993	     -6.94640926	     -0.46023860	     -0.00166096	      0.92407421	     -0.19506559	     21.46974733	     10.74495809	      1.24661195	     18.82534760	      0.32856430	     -3.26872717	    -17.12640782	     -5.61095976	     -7.74157444	     -8.97069451	     -7.18473551	     50.46316645	      0.88074841	    -19.90248058	    -17.15306496	     -5.61095976	     -7.31615200	     11.78003755	      1.42724419	     -5.78389780	     -6.46754006	    -12.04335452	     30.12419303	    111.20924092	      1.13100907	     -4.00978397	      0.04217963	     25.24975402	    105.55441142
      0.16000000	      1.50529646	     -7.06656428	     -0.68195945	      0.01103862	      0.92664731	     -0.19327162	     20.28357304	     11.01880706	      1.21838510	     18.90193946	      0.32990108	     -1.98613288	    -16.19572759	     -5.72635289	     -5.93922088	     -9.20030223	     -6.93326216	     53.34461852	      0.93103923	    -20.74608402	    -19.42764759	     -5.72635289	     -7.52087640	     11.87435316	      1.49313211	     -5.26338398	     -6.59217452	    -11.55302367	     29.98205334	    111.40259817	      0.75679415	     -3.51059964	     -2.51200656	     25.48607221	    105.59062409
      0.17000000	      1.86489906	     -7.16854783	     -0.83946843	      0.02350368	      0.92958943	     -0.19143227	     18.74977615	     11.30425252	      1.47355388	     18.53269591	      0.32345656	     -1.35880941	    -16.05747009	     -5.74147457	     -4.27929431	     -9.40553840	     -6.59926219	     55.89998654	      0.97563882	    -19.87094619	    -20.40480256	     -5.74147457	     -7.88701672	     11.91398687	      1.87276649	     -4.93410088	     -6.67223452	    -11.45546360	     30.01535101	    111.42664705	      0.72375871	     -3.34160745	     -2.74655689	     25.35706401	    105.60087908
      0.18000000	      1.98285267	     -7.20726281	     -0.99956391	      0.03581965	      0.93232027	     -0.18955237	     17.42426701	     11.47982338	      1.50366000	     17.99730655	      0.31411226	     -0.60286316	    -15.58993570	     -5.76422493	     -2.34935106	     -9.55145982	     -6.36340675	     58.14341508	      1.01479403	    -18.21743130	    -21.47465916	     -5.76422493	     -7.92487369	     11.84544301	      2.08092129	     -4.64379898	     -6.68934695	    -11.29209503	     30.18972663	    111.46912807	      0.61341505	     -3.21063468	     -3.15881624	     25.09812079	    105.59131750
